<svg id="Laag_1" xmlns="http://www.w3.org/2000/svg" viewBox="0 0 41 41"><defs><style>.cls-1{fill:none;stroke:none;stroke-miterlimit:10;}.cls-2{fill:#c1272d;}</style></defs><title>Logo_EigenMaaltijd</title><rect class="cls-1" x="0.5" y="0.5" width="40" height="40" rx="11.81" ry="11.81"/><path class="cls-2" d="M7203,7197.92q-2.37.12-4.74.3c-1.58.09-3.17.16-4.76.17a35.33,35.33,0,0,1-4.76-.24q-2.37-.3-4.73-.67l.51-.42c0,2.5-.1,5-.16,7.49s-.1,5-.11,7.49l-.13-.15a60.72,60.72,0,0,0,6.63.81c2.22.16,4.45.17,6.67.15s4.44-.17,6.65-.39,4.4-.56,6.59-.93l-.43.51c0-2.51,0-5,.05-7.52s.14-5,.24-7.52l.26.23C7208.15,7197.42,7205.55,7197.63,7203,7197.92Zm0-.1c2.59-.3,5.17-.67,7.73-1.07l.25,0v.27c.1,2.51.2,5,.24,7.52s0,5,.05,7.52v.43l-.43.08a63.19,63.19,0,0,1-6.69.87,66.7,66.7,0,0,1-6.74.22c-2.25,0-4.49-.21-6.72-.46s-4.44-.58-6.64-1l-.13,0V7212c0-2.5,0-5-.11-7.49s-.16-5-.16-7.49v-.49l.51.07q2.34.3,4.66.68c1.55.28,3.12.39,4.69.52s3.15.15,4.73.16S7201.38,7197.9,7203,7197.83Z" transform="translate(-7177 -7177)"/><path class="cls-2" d="M7207.25,7189.34a7.29,7.29,0,0,0,1.36-.88,2.33,2.33,0,0,0,.83-1.23c.23-1-.75-1.65-1.46-2.53a4.63,4.63,0,0,1-.9-1.57,3.22,3.22,0,0,1,0-1.87,5.25,5.25,0,0,1,2.1-2.72l.07.07a10.87,10.87,0,0,0-1.2,2.9,3.43,3.43,0,0,0,.57,2.72c.29.43.65.84,1,1.34a2.1,2.1,0,0,1,.33,1.8,2.72,2.72,0,0,1-1.14,1.33,7.48,7.48,0,0,1-1.5.73Z" transform="translate(-7177 -7177)"/><path class="cls-2" d="M7210.68,7195.06a3.57,3.57,0,0,0,1.9-2.07c.18-.89-.66-1.54-1.28-2.4a4.44,4.44,0,0,1-.74-1.52,3.29,3.29,0,0,1,.06-1.72,5.11,5.11,0,0,1,1.9-2.55l.08.06a12.81,12.81,0,0,0-1,2.73,3.48,3.48,0,0,0,.38,2.55c.24.41.55.81.83,1.28a2.13,2.13,0,0,1,.27,1.67,2.62,2.62,0,0,1-1,1.29,6.44,6.44,0,0,1-1.35.75Z" transform="translate(-7177 -7177)"/><path class="cls-2" d="M7196.17,7190.77a36,36,0,0,0-7.58,1.92,29.41,29.41,0,0,0-3.57,1.58,11,11,0,0,0-1.62,1c-.48.37-1,1-.52,1.1l-.16,0,13.94-2.11c4.65-.7,9.29-1.47,13.95-2.07l-.26.12c.05-.07,0,0,0,.08s0,0-.11-.1a3.11,3.11,0,0,0-.74-.39,12.14,12.14,0,0,0-1.8-.53,34.63,34.63,0,0,0-3.8-.63,38.72,38.72,0,0,0-3.87-.22A36.41,36.41,0,0,0,7196.17,7190.77Zm0-.1a36.59,36.59,0,0,1,3.89-.41q2-.14,3.92-.09a27.15,27.15,0,0,1,3.93.35,13,13,0,0,1,2,.48,4,4,0,0,1,1,.48,1.16,1.16,0,0,1,.49.65,1,1,0,0,1-.33.93l-.11.1-.15,0c-4.65.71-9.32,1.26-14,1.87l-14,1.83h-.1l-.06,0a.85.85,0,0,1-.43-.54.9.9,0,0,1,.16-.64,3.14,3.14,0,0,1,.76-.74,11.42,11.42,0,0,1,1.73-1,29.7,29.7,0,0,1,3.67-1.45q1.87-.61,3.79-1.05C7193.57,7191.1,7194.86,7190.86,7196.16,7190.67Z" transform="translate(-7177 -7177)"/><path class="cls-2" d="M7193,7188.41a11.13,11.13,0,0,1,.54,1.22c.08.21.24.4.2.62a1.23,1.23,0,0,1-.35.71l-.1,0a1.23,1.23,0,0,1-.54-.57c-.11-.2,0-.43,0-.65a11.13,11.13,0,0,1,.15-1.33Z" transform="translate(-7177 -7177)"/><path class="cls-2" d="M7196.8,7187.88a11.13,11.13,0,0,1,.54,1.22c.08.21.24.4.2.62a1.23,1.23,0,0,1-.35.71l-.1,0a1.23,1.23,0,0,1-.54-.57c-.11-.2,0-.43,0-.65a11.13,11.13,0,0,1,.15-1.33Z" transform="translate(-7177 -7177)"/><path class="cls-2" d="M7188.81,7188.68q2.94-.63,5.9-1.18a25.81,25.81,0,0,1,3-.52,15,15,0,0,1,3,0v.1a15,15,0,0,1-2.91.86,25.81,25.81,0,0,1-3,.32q-3,.29-6,.49Z" transform="translate(-7177 -7177)"/><path class="cls-2" d="M7183.79,7199.17a7.54,7.54,0,0,0-1.09-.49c-.19-.07-.4-.11-.59-.17a.48.48,0,0,0-.38.06.3.3,0,0,0-.12.42c.07.08.12.07.13.07a7.5,7.5,0,0,1,1,.7c.15.13.29.29.44.43s.11.16.22.22a.58.58,0,0,0,.72-.29A.75.75,0,0,0,7183.79,7199.17Zm0-.09a1,1,0,0,1,.48,1.08,1,1,0,0,1-.91.78,1,1,0,0,1-.62-.15l-.52-.29-1-.59a1,1,0,0,1-.48-1.13,1,1,0,0,1,.93-.78c.46,0,.78.29,1.12.46Z" transform="translate(-7177 -7177)"/><path class="cls-2" d="M7212.74,7198.37a7.62,7.62,0,0,0-1,.65c-.16.12-.31.27-.47.41a.48.48,0,0,0-.16.35.33.33,0,0,0,.3.35c.1,0,.12-.06.13-.07a7.58,7.58,0,0,1,1.12-.44c.19-.06.4-.09.6-.14a.49.49,0,0,0,.3-.07.59.59,0,0,0,.14-.77A.75.75,0,0,0,7212.74,7198.37Zm0-.09a1,1,0,0,1,1.17.19,1,1,0,0,1-.28,1.63l-.53.28-1.06.56a1,1,0,0,1-1.37-1.42c.22-.41.67-.51,1-.7Z" transform="translate(-7177 -7177)"/></svg>